<!--
Font Awesome Free License
––––––––––––––––––––––––-

Font Awesome Free is free, open source, and GPL friendly. You can use it for
commercial projects, open source projects, or really almost whatever you want.
Full Font Awesome Free license: https://fontawesome.com/license/free.

# Icons: CC BY 4.0 License (https://creativecommons.org/licenses/by/4.0/)
In the Font Awesome Free download, the CC BY 4.0 license applies to all icons
packaged as SVG and JS file types.

# Fonts: SIL OFL 1.1 License (https://scripts.sil.org/OFL)
In the Font Awesome Free download, the SIL OFL license applies to all icons
packaged as web and desktop font files.

# Code: MIT License (https://opensource.org/licenses/MIT)
In the Font Awesome Free download, the MIT license applies to all non-font and
non-icon files.

# Attribution
Attribution is required by MIT, SIL OFL, and CC BY licenses. Downloaded Font
Awesome Free files already contain embedded comments with sufficient
attribution, so you shouldn't need to do anything additional when using these
files normally.

We've kept attribution comments terse, so we ask that you do not actively work
to remove them from files, especially code. They're a great way for folks to
learn about Font Awesome.

# Brand Icons
All brand icons are trademarks of their respective owners. The use of these
trademarks does not indicate endorsement of the trademark holder by Font
Awesome, nor vice versa. **Please do not use brand logos for any purpose except
to represent the company, product, or service to which they refer.**

-->
<svg xmlns="http://www.w3.org/2000/svg" viewBox="0 0 448 512" fill="currentColor"><path d="M408.781 128.007C386.356 127.578 368 146.36 368 168.79V256h-8V79.79c0-22.43-18.356-41.212-40.781-40.783C297.488 39.423 280 57.169 280 79v177h-8V40.79C272 18.36 253.644-.422 231.219.007 209.488.423 192 18.169 192 40v216h-8V80.79c0-22.43-18.356-41.212-40.781-40.783C121.488 40.423 104 58.169 104 80v235.992l-31.648-43.519c-12.993-17.866-38.009-21.817-55.877-8.823-17.865 12.994-21.815 38.01-8.822 55.877l125.601 172.705A48 48 0 0 0 172.073 512h197.59c22.274 0 41.622-15.324 46.724-37.006l26.508-112.66a192.011 192.011 0 0 0 5.104-43.975V168c.001-21.831-17.487-39.577-39.218-39.993z"/></svg>